<?xml version="1.0" encoding="UTF-8" standalone="no"?>
<!-- Created with Inkscape (http://www.inkscape.org/) -->

<svg
   width="512"
   height="512"
   viewBox="0 0 512 512"
   version="1.1"
   id="svg5"
   xmlSpace="preserve"
   xmlns="http://www.w3.org/2000/svg">
   <defs
     id="defs2" /><g
     id="layer1"
     style="display:inline"><path
       style="display:inline;fill:#e33839;fill-opacity:1"
       d="M 37.014665,90.789629 V 348.29037 L 258.57408,476.20776 479.71615,348.53133 V 91.897718 l -35.2626,20.358872 V 327.19766 L 259.81316,433.79984 74.91814,327.05065 V 112.54221 Z"
       id="path234" /><path
       style="fill:#ffffff;fill-opacity:1"
       d="M 252.92326,35.929863 V 89.890949 L 144.02195,152.76515 v 75.27679 L 252.9363,164.9765 252.8738,216.9896 98.994949,304.2327 98.641396,126.92567 Z"
       id="path7272" /><path
       style="fill:#ffffff;fill-opacity:1"
       d="m 262.95534,164.98045 0.17677,52.00268 156.97407,89.88383 V 196.92924 L 301.58104,132.22897 v -19.62222 l 118.45663,66.99133 0.0625,-50.25452 -157.23322,-93.3916 v 110.59592 l 111.54609,63.10928 v 19.44544 z"
       id="path7976" /><path
       style="fill:#ffffff;fill-opacity:1"
       d="m 103,313.5 155.10938,-89.51118 36.83256,21.6299 L 186,309 l 25,13.75 108.375,-62.625 35.125,21.125 -106.75,62.25 20.5,12.5 109.5,-62.25 36.23483,20.91161 -154.36447,89.36385 z"
       id="path7978" /></g></svg>
